<?xml version="1.0" standalone="no"?>
<!DOCTYPE svg PUBLIC "-//W3C//DTD SVG 20010904//EN"
 "http://www.w3.org/TR/2001/REC-SVG-20010904/DTD/svg10.dtd">
<svg version="1.0" xmlns="http://www.w3.org/2000/svg"
 width="16.000000pt" height="16.000000pt" viewBox="0 0 16.000000 16.000000"
 preserveAspectRatio="xMidYMid meet">
<metadata>
Created by potrace 1.11, written by Peter Selinger 2001-2013
</metadata>
<g transform="translate(0.000000,16.000000) scale(0.002286,-0.002286)"
fill="#000000" stroke="none">
<path d="M3485 6800 c-4 -6 -11 -8 -16 -5 -5 4 -9 2 -9 -3 0 -7 -44 -32 -75
-43 -5 -1 -19 -11 -29 -21 -11 -10 -24 -18 -28 -18 -5 0 -25 -11 -45 -25 -20
-13 -40 -22 -44 -20 -4 3 -10 -2 -13 -11 -4 -10 -14 -14 -26 -11 -11 3 -18 2
-15 -3 3 -4 -3 -14 -12 -21 -14 -12 -16 -12 -9 1 6 12 5 12 -6 -1 -7 -8 -44
-33 -83 -54 -38 -21 -82 -47 -97 -57 -30 -21 -42 -23 -32 -6 4 7 3 8 -5 4 -6
-4 -8 -12 -5 -18 5 -7 0 -9 -14 -6 -16 4 -19 2 -15 -10 5 -11 2 -14 -11 -9
-10 4 -15 3 -11 -3 5 -9 -15 -15 -38 -11 -4 0 -6 -5 -5 -11 2 -7 -3 -12 -9
-10 -7 1 -13 -3 -13 -9 0 -5 -4 -7 -10 -4 -5 3 -10 1 -10 -5 0 -6 -4 -8 -10
-5 -5 3 -10 2 -10 -4 0 -15 -58 -43 -72 -35 -6 4 -8 3 -5 -3 5 -9 -53 -51 -62
-44 -2 1 -7 -1 -10 -6 -13 -19 -121 -74 -132 -67 -8 4 -9 3 -5 -4 6 -10 -44
-44 -60 -41 -4 0 -10 -4 -13 -9 -3 -6 -13 -12 -21 -14 -8 -2 -23 -11 -34 -21
-11 -10 -26 -15 -34 -12 -7 2 -10 0 -7 -5 3 -6 0 -10 -9 -10 -8 0 -16 -4 -18
-8 -5 -11 -98 -64 -98 -56 0 5 -7 -1 -15 -12 -8 -10 -15 -14 -15 -9 0 6 -4 4
-9 -4 -8 -12 -12 -12 -24 -2 -11 8 -17 9 -22 1 -4 -6 -3 -9 2 -8 4 2 8 -1 8
-7 0 -14 -66 -46 -78 -38 -6 3 -7 1 -3 -5 4 -7 -4 -17 -21 -24 -15 -7 -34 -18
-41 -25 -8 -7 -18 -11 -23 -8 -5 4 -9 1 -9 -5 0 -7 -7 -9 -16 -6 -8 3 -13 2
-11 -2 5 -8 -13 -27 -28 -30 -5 0 -30 -14 -54 -29 -24 -15 -48 -28 -53 -28 -5
0 -12 -5 -16 -10 -4 -6 -25 -19 -47 -30 -22 -11 -42 -23 -43 -28 -2 -4 -8 -5
-13 -1 -5 3 -9 0 -9 -6 0 -7 -7 -9 -16 -6 -8 3 -12 2 -9 -4 3 -6 1 -10 -4 -10
-19 0 -26 -3 -51 -27 -14 -13 -30 -21 -37 -19 -6 3 -14 -2 -17 -10 -3 -8 -12
-14 -21 -14 -8 0 -15 -4 -15 -8 0 -5 -16 -14 -35 -22 -19 -8 -35 -17 -35 -21
0 -14 -34 -19 -43 -7 -7 10 -8 9 -4 -3 5 -14 -42 -49 -68 -50 -5 0 -14 -7 -18
-15 -5 -8 -12 -12 -18 -9 -5 4 -9 1 -9 -5 0 -7 -7 -9 -17 -6 -10 4 -14 4 -10
0 10 -10 -31 -36 -45 -28 -7 4 -8 3 -4 -4 4 -7 2 -12 -3 -12 -22 0 -26 -2 -34
-16 -4 -8 -15 -14 -22 -14 -8 0 -15 -5 -15 -10 0 -6 -3 -9 -7 -8 -12 2 -46
-14 -62 -30 -7 -7 -20 -11 -27 -8 -8 3 -13 0 -11 -7 1 -7 -6 -11 -15 -11 -10
1 -16 -2 -13 -6 2 -4 -12 -16 -33 -26 -20 -10 -40 -23 -44 -29 -4 -5 -8 -6 -8
-2 0 5 -7 2 -15 -7 -9 -8 -22 -13 -31 -9 -9 3 -14 0 -12 -8 2 -7 -5 -15 -16
-17 -13 -3 -16 0 -11 10 5 7 4 10 -1 5 -5 -5 -9 -13 -9 -18 0 -6 -18 -20 -40
-32 -22 -12 -41 -25 -43 -29 -2 -5 -10 -8 -18 -8 -9 0 -12 5 -8 12 4 7 3 8 -5
4 -6 -4 -9 -11 -6 -16 3 -5 -3 -15 -13 -22 -19 -14 -42 -46 -26 -35 5 3 10 -3
10 -14 0 -10 -3 -19 -6 -19 -3 0 -5 -11 -5 -25 0 -14 4 -25 9 -25 5 0 3 -7 -4
-15 -10 -12 -10 -15 0 -15 10 0 10 -3 1 -14 -9 -11 -9 -15 1 -19 10 -4 10 -6
-1 -6 -11 -1 -11 -4 -1 -16 9 -11 9 -15 1 -15 -7 0 -9 -5 -5 -12 10 -16 12
-78 2 -72 -5 3 -8 1 -8 -5 0 -5 5 -13 10 -16 8 -5 7 -11 -1 -21 -9 -11 -9 -14
1 -14 10 0 10 -3 0 -15 -10 -12 -10 -15 0 -15 10 0 10 -3 0 -15 -7 -8 -9 -15
-4 -15 11 0 11 -121 0 -138 -4 -7 -2 -12 5 -12 8 0 8 -4 -1 -15 -10 -12 -10
-15 0 -15 10 0 10 -3 0 -15 -10 -12 -10 -15 0 -15 10 0 10 -3 1 -14 -9 -11 -9
-15 1 -19 10 -4 10 -6 -1 -6 -11 -1 -11 -4 -1 -16 9 -11 9 -15 1 -15 -7 0 -9
-5 -5 -12 10 -16 12 -78 2 -72 -5 3 -8 1 -8 -5 0 -5 5 -13 10 -16 8 -5 7 -11
-1 -21 -9 -11 -9 -14 1 -14 10 0 10 -3 0 -15 -10 -12 -10 -15 0 -15 10 0 10
-3 0 -15 -7 -8 -9 -15 -4 -15 11 0 11 -121 0 -138 -4 -7 -2 -12 5 -12 8 0 8
-4 -1 -15 -10 -12 -10 -15 0 -15 10 0 10 -3 0 -15 -10 -12 -10 -15 0 -15 10 0
10 -3 1 -14 -9 -11 -9 -15 1 -19 10 -4 10 -6 -1 -6 -11 -1 -11 -4 -1 -16 10
-12 10 -15 -1 -15 -10 0 -10 -3 -1 -12 8 -8 8 -17 1 -31 -6 -11 -7 -17 -2 -14
5 3 9 -3 9 -13 0 -10 -4 -16 -8 -14 -12 8 -9 -11 4 -24 9 -9 9 -12 -1 -12 -11
0 -11 -3 -1 -15 10 -12 10 -15 0 -15 -10 0 -10 -3 -1 -14 8 -10 9 -16 1 -21
-6 -3 -8 -11 -4 -16 10 -16 11 -70 2 -75 -5 -3 -5 -11 -1 -17 10 -16 10 -108
0 -129 -4 -10 -4 -18 0 -18 10 0 9 -142 0 -157 -4 -7 -4 -14 0 -16 10 -6 9
-120 -1 -136 -4 -6 -3 -11 2 -11 8 0 6 -79 -3 -88 -3 -3 0 -11 6 -19 9 -10 8
-13 -1 -13 -10 0 -10 -3 0 -15 10 -12 10 -15 0 -15 -8 0 -9 -4 -4 -12 11 -16
11 -68 1 -85 -5 -8 -3 -13 4 -13 10 0 10 -3 1 -12 -13 -13 -16 -32 -4 -24 4 2
8 -4 8 -15 0 -10 -4 -19 -9 -19 -5 0 -4 -7 3 -15 10 -12 10 -15 0 -15 -10 0
-10 -3 0 -15 10 -12 10 -15 0 -15 -8 0 -9 -4 -4 -12 11 -16 11 -68 1 -85 -5
-8 -3 -13 4 -13 9 0 9 -3 0 -14 -9 -11 -9 -15 1 -19 10 -4 10 -6 -1 -6 -11 -1
-11 -4 -1 -16 10 -12 10 -15 0 -15 -10 0 -10 -3 0 -15 10 -12 10 -15 0 -15
-10 0 -10 -3 0 -15 10 -12 10 -15 0 -15 -8 0 -9 -4 -4 -12 11 -15 11 -68 1
-85 -4 -6 -2 -15 4 -19 8 -4 7 -9 -2 -15 -9 -6 -10 -12 -4 -16 12 -10 13 -193
1 -193 -5 0 -3 -7 4 -15 10 -12 10 -15 0 -15 -8 0 -9 -4 -3 -12 10 -16 10 -98
0 -115 -5 -8 -3 -13 4 -13 8 0 8 -4 -1 -15 -7 -8 -9 -15 -4 -15 5 0 9 -22 9
-50 0 -27 -4 -50 -9 -50 -5 0 -3 -7 4 -15 9 -11 9 -15 1 -15 -7 0 -9 -5 -5
-12 11 -18 10 -68 -1 -68 -5 -1 9 -10 32 -22 24 -11 40 -25 36 -31 -3 -5 -1
-7 4 -4 13 8 73 -20 73 -34 0 -5 8 -9 19 -9 10 0 26 -10 35 -23 9 -12 14 -16
11 -10 -4 8 -1 11 9 7 9 -3 16 -10 16 -15 0 -5 5 -9 11 -9 9 0 67 -32 184
-103 17 -9 38 -20 48 -23 9 -4 17 -11 17 -16 0 -5 5 -6 10 -3 6 3 10 1 10 -4
0 -6 4 -11 9 -11 20 0 120 -64 114 -73 -3 -6 -1 -7 5 -3 19 12 72 -22 66 -42
-4 -12 -3 -13 3 -4 7 10 22 5 66 -21 31 -19 53 -37 49 -41 -3 -4 1 -4 10 -1 8
3 22 -1 31 -9 9 -9 21 -16 27 -16 6 0 8 -4 5 -10 -3 -5 0 -7 7 -5 8 3 24 -4
36 -15 12 -11 23 -20 24 -20 5 2 43 -14 48 -19 3 -4 18 -12 33 -19 15 -7 25
-17 22 -22 -3 -5 0 -7 8 -4 8 3 21 -2 30 -10 8 -8 17 -12 21 -9 3 4 6 1 6 -5
0 -7 -5 -12 -12 -12 -6 0 -8 -3 -5 -6 4 -4 13 -1 22 6 10 8 15 9 15 1 0 -6 7
-11 16 -11 10 0 14 -6 11 -14 -4 -10 -1 -13 7 -10 8 3 17 0 21 -5 3 -6 12 -8
18 -4 12 7 -11 -26 -28 -40 -6 -5 -3 -7 6 -4 9 3 24 -4 33 -15 14 -15 20 -17
31 -8 8 7 12 17 8 23 -3 6 -1 7 6 3 9 -6 9 -11 -1 -24 -11 -14 -10 -15 5 -9
13 5 17 3 14 -5 -2 -7 -13 -12 -23 -10 -15 2 -16 1 -5 -6 7 -6 28 -8 45 -6 29
4 30 4 12 -11 -23 -17 -14 -20 16 -4 27 14 36 3 12 -16 -13 -11 -14 -14 -4
-13 8 2 21 12 28 23 12 19 13 19 7 -2 -4 -13 -2 -23 4 -23 5 0 12 8 14 18 4
16 5 16 6 0 0 -10 6 -18 11 -18 6 0 10 -7 10 -15 0 -8 5 -15 11 -15 5 0 7 6 3
13 -4 6 3 3 15 -8 17 -15 24 -16 30 -6 6 10 10 9 15 -5 3 -9 4 -19 1 -22 -3
-3 -5 -1 -5 4 0 5 -11 10 -25 10 -31 2 -34 -11 -3 -13 11 -1 24 -7 28 -13 5
-8 9 -7 13 4 4 9 12 16 19 16 9 0 8 -3 -2 -10 -14 -9 -13 -11 9 -14 5 0 13 -5
18 -10 5 -6 2 -6 -7 -1 -8 5 -12 5 -8 0 4 -4 2 -15 -4 -24 -10 -13 -9 -13 7 1
25 20 57 7 48 -20 -4 -13 -2 -13 10 3 9 11 17 16 17 11 0 -5 6 -3 14 3 10 8
16 9 21 1 4 -6 1 -9 -6 -8 -6 2 -14 -3 -16 -11 -4 -9 0 -11 16 -6 13 4 21 2
21 -5 0 -6 -4 -9 -9 -5 -5 3 -12 1 -15 -3 -3 -5 7 -9 22 -8 17 1 26 6 24 14
-1 8 2 11 8 7 6 -3 8 -10 5 -15 -3 -5 4 -14 15 -20 11 -6 17 -16 14 -22 -5 -7
0 -9 13 -6 26 7 54 -9 47 -26 -3 -7 2 -19 10 -26 9 -7 14 -16 11 -20 -3 -5 0
-12 6 -16 8 -5 9 -3 4 6 -6 10 -3 12 13 8 12 -4 20 -3 18 1 -3 4 4 12 15 19
11 7 19 8 19 2 0 -5 -4 -10 -9 -10 -6 0 -9 -8 -8 -18 0 -10 7 -19 14 -19 6 0
10 3 8 7 -2 4 1 15 8 24 11 15 15 14 48 -8 20 -14 39 -22 43 -19 3 3 8 -2 12
-11 3 -9 10 -13 15 -10 5 3 9 0 9 -6 0 -6 4 -9 9 -5 5 3 13 0 16 -5 4 -6 18
-15 32 -21 14 -5 21 -14 17 -21 -4 -7 -3 -8 5 -4 6 4 28 -3 49 -16 20 -12 40
-22 45 -20 4 1 7 -2 7 -7 0 -5 13 -14 30 -20 16 -5 30 -15 30 -21 0 -6 5 -8
10 -5 6 3 10 1 10 -5 0 -6 5 -8 10 -5 6 3 10 1 10 -4 0 -6 4 -11 9 -11 4 0 50
-23 100 -51 68 -38 91 -55 86 -67 -4 -12 -3 -12 9 -3 9 8 16 8 20 2 4 -6 36
-24 71 -42 36 -17 65 -36 65 -42 0 -6 3 -7 7 -4 3 4 13 1 22 -6 9 -8 36 -25
61 -38 25 -13 48 -28 52 -34 5 -7 8 -7 8 0 0 6 4 5 8 -2 12 -18 35 -18 77 3
22 10 42 21 45 24 5 6 54 35 133 79 20 11 37 18 37 14 0 -4 7 2 15 13 8 10 15
15 15 9 0 -5 5 -3 10 5 9 13 11 13 21 0 9 -13 10 -12 5 2 -8 27 69 65 92 46
15 -12 16 -11 4 4 -11 14 -10 18 7 28 12 6 21 8 21 5 0 -3 9 2 19 12 11 10 37
27 58 38 21 10 49 27 62 37 13 10 27 15 32 12 5 -3 9 0 9 5 0 6 5 11 12 11 6
0 19 7 29 16 9 8 26 16 37 17 11 0 19 4 16 9 -2 4 5 12 17 18 17 10 20 9 14
-2 -4 -8 -1 -7 7 2 14 16 63 50 73 50 4 0 3 -5 -1 -12 -4 -7 -3 -8 5 -4 6 4 9
11 7 15 -6 8 103 75 110 68 3 -3 17 6 31 19 14 13 32 24 39 24 8 0 14 4 14 9
0 5 10 13 23 17 12 4 37 17 56 30 19 13 38 21 43 18 4 -3 8 0 8 6 0 7 7 9 16
6 8 -3 12 -2 9 4 -3 6 2 13 12 17 10 3 26 13 36 21 9 8 17 12 17 8 0 -4 15 4
33 17 59 45 145 87 164 81 14 -5 15 -4 4 4 -11 8 -10 12 8 21 20 11 25 8 22
-12 -1 -5 3 -6 8 -2 6 3 8 12 5 20 -4 9 2 18 12 22 11 4 31 15 46 26 15 11 31
16 39 12 8 -5 10 -4 5 3 -6 11 6 16 27 13 4 0 7 3 7 8 0 9 257 159 273 160 4
0 17 10 29 21 12 11 26 20 31 20 5 0 23 10 40 22 18 13 27 16 22 7 -4 -7 2 -4
14 9 12 12 28 22 36 22 8 0 15 4 15 9 0 5 17 17 38 26 20 10 49 26 63 36 14
10 29 16 33 12 3 -3 6 -1 6 6 0 8 6 11 17 7 10 -4 14 -4 10 0 -7 7 95 74 114
74 5 0 9 5 9 11 0 6 7 8 16 5 8 -3 12 -2 9 4 -5 9 16 15 38 11 5 -1 6 2 3 7
-7 11 123 84 135 76 5 -3 8 -2 7 3 -2 4 1 9 6 10 5 1 12 6 15 11 3 5 59 39
124 76 64 37 115 72 112 76 -3 5 5 16 17 26 14 10 16 14 6 11 -20 -7 -29 11
-16 35 5 10 5 18 0 18 -4 0 -8 9 -8 20 0 11 3 20 6 20 9 0 6 32 -4 48 -4 7 -2
12 4 12 6 0 8 5 4 12 -11 17 -12 48 -3 48 4 0 4 13 -1 28 -4 16 -4 36 2 45 6
11 5 17 -1 17 -9 0 -7 37 4 67 2 6 -1 14 -8 17 -9 3 -8 5 1 5 8 1 10 6 6 13
-11 17 -12 48 -3 48 4 0 4 13 -1 28 -4 16 -4 36 2 45 6 11 5 17 -1 17 -9 0 -7
37 4 67 2 6 -1 14 -8 17 -9 3 -8 5 1 5 8 1 10 6 6 13 -11 17 -12 48 -3 48 4 0
4 13 -1 28 -4 16 -4 36 2 45 6 11 5 17 -1 17 -9 0 -7 37 4 67 2 6 -1 14 -8 17
-9 3 -8 5 1 5 8 1 10 6 6 13 -11 17 -12 48 -3 48 4 0 4 13 -1 28 -4 16 -4 36
2 45 6 11 5 17 -1 17 -9 0 -7 37 4 67 2 6 -1 14 -8 17 -9 3 -8 5 1 5 8 1 10 6
6 13 -11 17 -12 48 -3 48 4 0 4 13 -1 28 -4 16 -4 36 2 45 5 10 5 17 1 17 -10
0 -10 41 1 58 4 7 3 12 -2 12 -9 0 -7 59 3 68 3 3 0 11 -6 19 -9 10 -8 13 0
13 7 0 9 5 5 12 -11 17 -12 48 -3 48 4 0 4 13 -1 28 -4 16 -4 36 2 45 6 11 5
17 -1 17 -9 0 -7 37 4 67 2 6 -1 14 -8 17 -9 3 -8 5 1 5 8 1 10 6 6 13 -11 17
-12 48 -3 48 4 0 4 13 -1 28 -4 16 -4 36 2 45 6 11 5 17 -1 17 -9 0 -7 37 4
67 2 6 -1 14 -8 17 -9 3 -8 5 1 5 8 1 10 6 6 13 -11 17 -12 48 -3 48 4 0 4 13
-1 28 -4 16 -4 36 2 45 6 11 5 17 -1 17 -9 0 -7 37 4 67 2 6 -1 14 -8 17 -9 3
-8 5 1 5 8 1 10 6 6 13 -11 17 -12 48 -3 48 4 0 4 13 -1 28 -4 16 -4 36 2 45
6 11 5 17 -1 17 -9 0 -7 37 4 67 2 6 -1 14 -8 17 -9 3 -8 5 1 5 8 1 10 6 6 13
-11 17 -12 48 -3 48 4 0 4 13 -1 28 -4 16 -4 36 2 45 6 12 5 17 -3 17 -9 0 -9
3 0 14 8 10 9 16 1 21 -7 4 -7 12 0 26 7 12 7 19 1 19 -9 0 -7 37 4 67 2 6 -1
14 -8 17 -9 3 -8 5 1 5 8 1 10 6 6 13 -11 17 -12 48 -3 48 4 0 4 13 -1 28 -4
16 -4 36 2 45 6 11 5 17 -1 17 -9 0 -7 37 4 67 2 6 -1 14 -8 17 -9 3 -8 5 1 5
8 1 10 6 6 13 -11 17 -12 48 -3 48 4 0 4 13 -1 28 -4 16 -4 36 2 45 6 11 5 17
-1 17 -9 0 -7 37 4 68 2 6 1 12 -4 12 -4 0 -6 22 -5 50 2 27 0 49 -4 48 -12
-3 -62 25 -62 34 0 4 -9 8 -20 8 -11 0 -20 4 -20 8 0 4 -12 13 -27 20 -49 21
-78 42 -76 52 2 5 -4 7 -11 4 -8 -3 -24 4 -35 15 -12 12 -23 21 -26 20 -12 -2
-65 24 -65 32 0 5 -7 9 -15 9 -8 0 -15 5 -15 11 0 5 -4 8 -9 4 -5 -3 -15 1
-23 7 -7 7 -34 24 -60 37 -26 13 -55 31 -65 40 -11 9 -25 17 -33 19 -8 2 -17
8 -18 13 -2 5 -8 7 -13 3 -5 -3 -9 0 -9 6 0 6 -4 8 -10 5 -5 -3 -10 -3 -10 2
0 4 -14 14 -30 21 -17 8 -28 18 -25 23 4 5 -1 6 -9 3 -9 -3 -16 -1 -16 6 0 6
-4 9 -8 6 -5 -3 -19 4 -30 15 -12 11 -22 17 -22 14 0 -3 -13 2 -30 12 -16 9
-30 21 -30 25 0 4 -9 8 -21 8 -11 0 -17 4 -14 10 3 6 -1 7 -9 4 -9 -4 -18 1
-22 10 -3 9 -14 16 -23 16 -18 1 -53 24 -46 31 2 3 -5 6 -17 6 -12 1 -24 6
-27 10 -3 5 -33 23 -66 40 -49 27 -59 36 -57 55 2 20 1 21 -10 6 -12 -15 -18
-13 -75 20 -34 19 -59 40 -56 45 3 6 1 7 -5 3 -14 -8 -74 28 -64 39 4 5 1 5
-6 1 -8 -5 -19 -1 -28 10 -9 11 -12 13 -9 6 6 -11 3 -11 -14 0 -12 7 -21 16
-21 20 0 5 -9 8 -20 8 -11 0 -20 4 -20 9 0 5 -10 11 -23 15 -30 7 -69 41 -59
51 4 5 1 5 -6 1 -16 -9 -54 3 -47 15 4 5 -1 9 -9 9 -9 0 -35 11 -58 24 -30 17
-42 30 -40 43 2 13 1 15 -6 5 -7 -11 -19 -8 -61 13 -28 15 -49 31 -46 35 3 5
0 12 -6 16 -8 4 -9 3 -5 -4 4 -7 3 -12 -3 -12 -5 0 -11 3 -13 8 -1 4 -24 18
-50 32 -27 13 -48 28 -48 32 0 5 -6 8 -13 8 -18 0 -67 23 -67 32 0 4 -20 17
-45 28 -25 11 -45 26 -45 32 0 6 -3 8 -6 5 -6 -6 -60 19 -74 33 -3 3 -17 11
-33 19 -20 11 -24 17 -15 23 9 6 6 7 -8 3 -13 -3 -31 2 -47 15 -14 11 -30 20
-37 20 -6 0 -23 12 -37 28 -15 15 -23 21 -18 14 8 -14 -82 31 -100 50 -7 8 -6
8 4 3 10 -5 12 -4 7 4 -4 6 -11 9 -16 6 -9 -6 -71 21 -80 35 -3 4 -28 19 -57
34 -87 44 -145 83 -131 90 7 3 3 3 -9 0 -13 -3 -23 -1 -23 5 0 6 -3 10 -7 9
-5 -1 -22 6 -40 15 -20 11 -34 13 -38 7z m-1591 -5716 c7 -19 2 -18 -19 6 -16
17 -16 20 -3 15 9 -4 19 -13 22 -21z m81 -24 c3 -6 -1 -7 -9 -4 -18 7 -21 14
-7 14 6 0 13 -4 16 -10z m255 -140 c0 -5 -5 -10 -11 -10 -5 0 -7 5 -4 10 3 6
8 10 11 10 2 0 4 -4 4 -10z m241 -154 c5 3 8 0 7 -8 -2 -7 3 -12 10 -10 8 1
11 -2 7 -8 -15 -25 -58 1 -47 28 4 11 7 12 10 4 2 -7 8 -10 13 -6z"/>
<path d="M2710 6401 c0 -6 4 -13 10 -16 6 -3 7 1 4 9 -7 18 -14 21 -14 7z"/>
<path d="M1722 5824 c10 -10 20 -16 22 -13 3 3 -5 11 -17 18 -21 13 -21 12 -5
-5z"/>
<path d="M915 5371 c-3 -5 -2 -12 3 -15 5 -3 9 1 9 9 0 17 -3 19 -12 6z"/>
<path d="M6375 5020 c-3 -5 -1 -10 4 -10 6 0 11 5 11 10 0 6 -2 10 -4 10 -3 0
-8 -4 -11 -10z"/>
<path d="M6375 4780 c-3 -5 -1 -10 4 -10 6 0 11 5 11 10 0 6 -2 10 -4 10 -3 0
-8 -4 -11 -10z"/>
<path d="M6375 4220 c-3 -5 -1 -10 4 -10 6 0 11 5 11 10 0 6 -2 10 -4 10 -3 0
-8 -4 -11 -10z"/>
<path d="M6375 3980 c-3 -5 -1 -10 4 -10 6 0 11 5 11 10 0 6 -2 10 -4 10 -3 0
-8 -4 -11 -10z"/>
<path d="M606 3742 c-3 -5 1 -9 9 -9 8 0 12 4 9 9 -3 4 -7 8 -9 8 -2 0 -6 -4
-9 -8z"/>
<path d="M6375 3740 c-3 -5 -1 -10 4 -10 6 0 11 5 11 10 0 6 -2 10 -4 10 -3 0
-8 -4 -11 -10z"/>
<path d="M6375 3500 c-3 -5 -1 -10 4 -10 6 0 11 5 11 10 0 6 -2 10 -4 10 -3 0
-8 -4 -11 -10z"/>
<path d="M606 3422 c-3 -5 1 -9 9 -9 8 0 12 4 9 9 -3 4 -7 8 -9 8 -2 0 -6 -4
-9 -8z"/>
<path d="M6375 2940 c-3 -5 -1 -10 4 -10 6 0 11 5 11 10 0 6 -2 10 -4 10 -3 0
-8 -4 -11 -10z"/>
<path d="M6375 2700 c-3 -5 -1 -10 4 -10 6 0 11 5 11 10 0 6 -2 10 -4 10 -3 0
-8 -4 -11 -10z"/>
<path d="M6375 2460 c-3 -5 -1 -10 4 -10 6 0 11 5 11 10 0 6 -2 10 -4 10 -3 0
-8 -4 -11 -10z"/>
<path d="M6375 2220 c-3 -5 -1 -10 4 -10 6 0 11 5 11 10 0 6 -2 10 -4 10 -3 0
-8 -4 -11 -10z"/>
<path d="M5549 1323 c-13 -16 -12 -17 4 -4 16 13 21 21 13 21 -2 0 -10 -8 -17
-17z"/>
<path d="M1826 1131 c-4 -5 -2 -12 3 -15 5 -4 12 -2 15 3 4 5 2 12 -3 15 -5 4
-12 2 -15 -3z"/>
<path d="M5050 1061 c0 -6 4 -13 10 -16 6 -3 7 1 4 9 -7 18 -14 21 -14 7z"/>
<path d="M2036 981 c-4 -5 -2 -12 3 -15 5 -4 12 -2 15 3 4 5 2 12 -3 15 -5 4
-12 2 -15 -3z"/>
<path d="M2253 852 c2 -12 6 -24 10 -28 3 -4 4 4 2 16 -6 30 -16 40 -12 12z"/>
<path d="M2330 824 c0 -11 29 -34 34 -26 2 4 -4 13 -15 20 -10 7 -19 10 -19 6z"/>
<path d="M2390 780 c-13 -8 -13 -10 2 -10 9 0 18 -5 20 -12 3 -7 7 -5 11 6 4
9 3 15 -2 11 -5 -3 -11 -1 -13 5 -2 6 -8 6 -18 0z"/>
<path d="M2550 722 c0 -5 11 -14 25 -20 14 -6 25 -10 25 -8 0 2 -11 11 -25 20
-14 9 -25 13 -25 8z"/>
<path d="M2750 559 c0 -5 5 -7 10 -4 6 3 10 8 10 11 0 2 -4 4 -10 4 -5 0 -10
-5 -10 -11z"/>
</g>
</svg>
